<?xml version="1.0" standalone="no"?>
<!DOCTYPE svg PUBLIC "-//W3C//DTD SVG 20010904//EN"
 "http://www.w3.org/TR/2001/REC-SVG-20010904/DTD/svg10.dtd">
<svg version="1.0" xmlns="http://www.w3.org/2000/svg"
 width="275.000000pt" height="275.000000pt" viewBox="0 0 275.000000 275.000000"
 preserveAspectRatio="xMidYMid meet">
<metadata>
Created by potrace 1.11, written by Peter Selinger 2001-2013
</metadata>
<g transform="translate(0.000000,275.000000) scale(0.100000,-0.100000)"
fill="#000000" stroke="none">
<path d="M498 2153 c-33 -4 -38 -8 -38 -29 0 -19 5 -24 25 -24 l25 0 0 -140 0
-140 -25 -6 c-16 -4 -25 -13 -25 -25 0 -17 8 -19 95 -19 87 0 95 2 95 19 0 12
-9 21 -25 25 -25 6 -25 6 -25 131 0 119 1 125 23 140 42 27 83 29 106 6 20
-20 21 -30 19 -149 -3 -123 -4 -127 -25 -130 -15 -2 -23 -10 -23 -23 0 -17 8
-19 95 -19 88 0 95 1 95 20 0 13 -7 20 -19 20 -11 0 -22 4 -25 8 -3 5 -6 62
-7 128 -1 114 -1 119 22 136 40 30 84 33 108 9 20 -20 21 -30 19 -149 -3 -123
-4 -127 -25 -130 -15 -2 -23 -10 -23 -23 0 -17 8 -19 90 -19 81 0 90 2 90 19
0 10 -9 21 -20 24 -18 5 -20 14 -20 114 0 123 -11 175 -45 209 -38 38 -131 30
-196 -17 -12 -9 -21 -7 -42 15 -33 33 -99 36 -158 5 l-41 -20 -5 20 c-6 22
-11 23 -95 14z"/>
<path d="M1640 2126 c0 -15 7 -26 19 -29 13 -3 36 -50 83 -168 l64 -164 33 0
34 0 41 117 c23 64 44 119 47 122 2 3 25 -51 49 -120 l45 -125 34 3 33 3 53
152 c62 176 59 171 92 184 16 6 23 15 21 27 -3 14 -17 17 -91 20 l-87 3 0 -26
c0 -21 5 -25 30 -25 24 0 30 -4 30 -22 0 -25 -62 -218 -70 -218 -3 0 -25 64
-50 143 -45 140 -46 142 -75 142 -28 0 -30 -3 -74 -137 -25 -76 -48 -138 -51
-138 -9 0 -80 212 -74 221 3 5 16 9 30 9 19 0 24 5 24 25 0 25 0 25 -95 25
-93 0 -95 0 -95 -24z"/>
<path d="M1983 1243 c-41 -5 -46 -38 -8 -47 24 -6 25 -9 25 -91 l0 -86 -30 16
c-40 21 -118 19 -160 -3 -56 -30 -85 -92 -84 -182 0 -79 9 -107 52 -153 49
-52 149 -59 206 -13 l28 22 28 -28 c28 -27 53 -34 84 -22 24 9 20 42 -6 46
l-23 3 -5 270 c-3 149 -7 271 -8 273 -3 3 -57 0 -99 -5z m-34 -248 c38 -19 56
-67 55 -145 -1 -100 -35 -150 -102 -150 -78 0 -119 159 -67 261 24 46 67 59
114 34z"/>
<path d="M714 1066 c-78 -35 -87 -126 -12 -126 32 0 53 30 42 62 -8 25 9 38
51 38 41 0 75 -25 75 -56 0 -26 -17 -36 -132 -78 -26 -10 -61 -30 -78 -46 -62
-58 -29 -160 57 -176 42 -8 110 10 139 37 20 19 21 19 42 -6 45 -51 112 -42
138 20 19 47 18 55 -11 55 -18 0 -25 -5 -25 -20 0 -25 -29 -38 -41 -19 -5 8
-9 69 -9 136 0 121 0 123 -29 155 -27 30 -34 33 -102 35 -48 2 -85 -2 -105
-11z m151 -252 c-7 -41 -47 -74 -89 -74 -38 0 -56 15 -56 48 0 41 20 63 83 92
l62 28 3 -31 c2 -17 1 -45 -3 -63z"/>
</g>
</svg>
